<svg width="30" height="12" viewBox="0 0 30 12" fill="none" xmlns="http://www.w3.org/2000/svg">
<path d="M2.3418 6.0835H3.87793L5.39795 9H6.98242L5.29053 5.87402C6.21436 5.54102 6.75146 4.68701 6.75146 3.66113C6.75146 2.17871 5.73096 1.24951 4.10352 1.24951H0.956055V9H2.3418V6.0835ZM2.3418 2.37207H3.91016C4.79102 2.37207 5.32812 2.87158 5.32812 3.68799C5.32812 4.52051 4.82324 4.99854 3.94238 4.99854H2.3418V2.37207ZM11.9399 7.39404C11.7466 7.83447 11.29 8.08154 10.6294 8.08154C9.75391 8.08154 9.18994 7.4585 9.15771 6.46484V6.39502H13.2612V5.9707C13.2612 4.12842 12.2568 3.0166 10.5811 3.0166C8.87842 3.0166 7.82031 4.20361 7.82031 6.08887C7.82031 7.96875 8.8623 9.11816 10.5918 9.11816C11.9775 9.11816 12.9604 8.45215 13.2021 7.39404H11.9399ZM10.5757 4.05322C11.376 4.05322 11.9023 4.61719 11.9292 5.50879H9.16309C9.22217 4.62793 9.78076 4.05322 10.5757 4.05322ZM17.7998 3.03271C16.9941 3.03271 16.312 3.43555 15.9736 4.10156H15.8823V3.12939H14.5986V10.9497H15.9307V8.1084H16.022C16.3228 8.73145 16.9727 9.09668 17.8159 9.09668C19.2983 9.09668 20.2222 7.93115 20.2222 6.06738C20.2222 4.1875 19.2876 3.03271 17.7998 3.03271ZM17.3809 7.99023C16.4731 7.99023 15.9092 7.25439 15.9038 6.06738C15.9092 4.88037 16.4785 4.14453 17.3862 4.14453C18.2993 4.14453 18.8525 4.86426 18.8525 6.06738C18.8525 7.27051 18.3047 7.99023 17.3809 7.99023ZM21.6133 9H22.9453V0.857422H21.6133V9ZM25.2764 11.127C26.5923 11.127 27.2207 10.6489 27.7202 9.2041L29.8418 3.12939H28.4346L27.0649 7.73779H26.9736L25.5986 3.12939H24.1377L26.2378 9.02148L26.168 9.29541C25.9961 9.84863 25.6792 10.0635 25.1152 10.0635C25.0239 10.0635 24.8252 10.0581 24.75 10.0474V11.1055C24.8359 11.1216 25.1958 11.127 25.2764 11.127Z" fill="black" fill-opacity="0.4"/>
</svg>
